<svg xmlns="http://www.w3.org/2000/svg" viewBox="0 0 100 100">
  <!-- Background circle -->
  <circle cx="50" cy="50" r="48" fill="#f0f9ff" class="dark:fill-slate-800" />
  
  <!-- Elephant body -->
  <ellipse cx="55" cy="55" rx="30" ry="25" fill="#64748b" class="dark:fill-slate-600" />
  
  <!-- Head -->
  <ellipse cx="30" cy="45" rx="18" ry="16" fill="#64748b" class="dark:fill-slate-600" />
  
  <!-- Ears -->
  <ellipse cx="35" cy="35" rx="14" ry="12" fill="#94a3b8" class="dark:fill-slate-500" />
  <ellipse cx="25" cy="35" rx="14" ry="12" fill="#64748b" class="dark:fill-slate-600" />
  <ellipse cx="35" cy="35" rx="10" ry="9" fill="#64748b" class="dark:fill-slate-600" />
  <ellipse cx="25" cy="35" rx="10" ry="9" fill="#475569" class="dark:fill-slate-700" />
  
  <!-- Trunk -->
  <path d="M25 50 Q20 60 15 70 Q13 75 18 78 Q23 80 25 75 Q27 70 25 65 Q23 60 27 55 Q29 52 30 50" fill="#64748b" class="dark:fill-slate-600" />
  
  <!-- Eyes -->
  <circle cx="25" cy="42" r="2" fill="#1e293b" class="dark:fill-white" />
  
  <!-- Tusks -->
  <path d="M20 55 Q18 58 16 60" stroke="white" stroke-width="2" fill="none" class="dark:stroke-slate-300" />
  <path d="M15 55 Q13 58 11 60" stroke="white" stroke-width="2" fill="none" class="dark:stroke-slate-300" />
  
  <!-- Decorative circle -->
  <circle cx="50" cy="50" r="46" stroke="#0ea5e9" stroke-width="1.5" fill="none" class="dark:stroke-teal-500" stroke-dasharray="3,2" />
  
  <style>
    circle, ellipse, path { transition: all 0.3s ease; }
    @media (prefers-color-scheme: dark) {
      .dark\:fill-slate-800 { fill: #1e293b; }
      .dark\:fill-slate-600 { fill: #475569; }
      .dark\:fill-slate-500 { fill: #64748b; }
      .dark\:fill-slate-700 { fill: #334155; }
      .dark\:stroke-slate-300 { stroke: #cbd5e1; }
      .dark\:stroke-teal-500 { stroke: #14b8a6; }
      .dark\:fill-white { fill: #ffffff; }
    }
  </style>
</svg>
